<mxfile host="drawio-plugin" modified="2021-08-21T15:43:39.179Z" agent="5.0 (Windows NT 6.2; Win64; x64) AppleWebKit/537.36 (KHTML, like Gecko) Chrome/89.0.4389.114 Safari/537.36" etag="io4EcCowy28vaZ21-CDb" version="14.7.4" type="embed" pages="3"><diagram id="TXXlHFKijfGD9bMzDoRn" name="Gateway - request"><mxGraphModel dx="1177" dy="816" grid="1" gridSize="10" guides="1" tooltips="1" connect="1" arrows="1" fold="1" page="1" pageScale="1" pageWidth="600" pageHeight="500" math="0" shadow="0"><root><mxCell id="kVYuDdD-bTvSPbI2ndRd-0"/><mxCell id="kVYuDdD-bTvSPbI2ndRd-1" parent="kVYuDdD-bTvSPbI2ndRd-0"/><mxCell id="PegGbP0o_FV90BbM3bnu-0" value="Diagnostic Tester" style="rounded=0;whiteSpace=wrap;html=1;fillColor=#1ba1e2;strokeColor=#006EAF;fontColor=#ffffff;" parent="kVYuDdD-bTvSPbI2ndRd-1" vertex="1"><mxGeometry x="40" y="120" width="80" height="40" as="geometry"/></mxCell><mxCell id="PegGbP0o_FV90BbM3bnu-9" value="port OBD" style="ellipse;whiteSpace=wrap;html=1;fillColor=#ffff88;strokeColor=#36393d;" parent="kVYuDdD-bTvSPbI2ndRd-1" vertex="1"><mxGeometry x="240" y="120" width="40" height="40" as="geometry"/></mxCell><mxCell id="PegGbP0o_FV90BbM3bnu-10" value="CAN" style="shape=link;html=1;exitX=1;exitY=0.5;exitDx=0;exitDy=0;entryX=0;entryY=0.5;entryDx=0;entryDy=0;strokeColor=#b85450;fillColor=#f8cecc;" parent="kVYuDdD-bTvSPbI2ndRd-1" source="PegGbP0o_FV90BbM3bnu-0" target="PegGbP0o_FV90BbM3bnu-9" edge="1"><mxGeometry width="100" relative="1" as="geometry"><mxPoint x="130" y="130" as="sourcePoint"/><mxPoint x="230" y="130" as="targetPoint"/></mxGeometry></mxCell><mxCell id="PegGbP0o_FV90BbM3bnu-11" value="CAN" style="shape=link;html=1;exitX=1;exitY=0.5;exitDx=0;exitDy=0;fillColor=#f8cecc;strokeColor=#b85450;" parent="kVYuDdD-bTvSPbI2ndRd-1" source="PegGbP0o_FV90BbM3bnu-9" edge="1"><mxGeometry width="100" relative="1" as="geometry"><mxPoint x="290" y="140" as="sourcePoint"/><mxPoint x="500" y="140" as="targetPoint"/></mxGeometry></mxCell><mxCell id="PegGbP0o_FV90BbM3bnu-12" value="Vehicle" style="swimlane;dashed=1;fillColor=#ffff88;strokeColor=#36393d;" parent="kVYuDdD-bTvSPbI2ndRd-1" vertex="1"><mxGeometry x="240" y="40" width="320" height="440" as="geometry"/></mxCell><mxCell id="PegGbP0o_FV90BbM3bnu-14" value="ECU1" style="rounded=0;whiteSpace=wrap;html=1;fillColor=#a20025;strokeColor=#6F0000;fontColor=#ffffff;" parent="PegGbP0o_FV90BbM3bnu-12" vertex="1"><mxGeometry x="80" y="40" width="40" height="40" as="geometry"/></mxCell><mxCell id="PegGbP0o_FV90BbM3bnu-15" value="" style="shape=link;html=1;exitX=0.5;exitY=1;exitDx=0;exitDy=0;fillColor=#f8cecc;strokeColor=#b85450;" parent="PegGbP0o_FV90BbM3bnu-12" source="PegGbP0o_FV90BbM3bnu-14" edge="1"><mxGeometry width="100" relative="1" as="geometry"><mxPoint x="130" y="150" as="sourcePoint"/><mxPoint x="100" y="100" as="targetPoint"/></mxGeometry></mxCell><mxCell id="PegGbP0o_FV90BbM3bnu-18" value="ECU2" style="rounded=0;whiteSpace=wrap;html=1;fillColor=#a20025;strokeColor=#6F0000;fontColor=#ffffff;" parent="PegGbP0o_FV90BbM3bnu-12" vertex="1"><mxGeometry x="240" y="40" width="40" height="40" as="geometry"/></mxCell><mxCell id="PegGbP0o_FV90BbM3bnu-22" value="" style="shape=link;html=1;exitX=0.5;exitY=1;exitDx=0;exitDy=0;fillColor=#f8cecc;strokeColor=#b85450;" parent="PegGbP0o_FV90BbM3bnu-12" source="PegGbP0o_FV90BbM3bnu-18" edge="1"><mxGeometry width="100" relative="1" as="geometry"><mxPoint x="240" y="160" as="sourcePoint"/><mxPoint x="260" y="100" as="targetPoint"/></mxGeometry></mxCell><mxCell id="PegGbP0o_FV90BbM3bnu-23" value="ECU3" style="rounded=0;whiteSpace=wrap;html=1;fillColor=#6a00ff;strokeColor=#3700CC;fontColor=#ffffff;" parent="PegGbP0o_FV90BbM3bnu-12" vertex="1"><mxGeometry x="60" y="120" width="40" height="40" as="geometry"/></mxCell><mxCell id="PegGbP0o_FV90BbM3bnu-24" value="ECU4" style="rounded=0;whiteSpace=wrap;html=1;fillColor=#6a00ff;strokeColor=#3700CC;fontColor=#ffffff;" parent="PegGbP0o_FV90BbM3bnu-12" vertex="1"><mxGeometry x="200" y="120" width="40" height="40" as="geometry"/></mxCell><mxCell id="PegGbP0o_FV90BbM3bnu-26" value="" style="shape=link;html=1;entryX=0.5;entryY=0;entryDx=0;entryDy=0;fillColor=#f8cecc;strokeColor=#b85450;" parent="PegGbP0o_FV90BbM3bnu-12" target="PegGbP0o_FV90BbM3bnu-24" edge="1"><mxGeometry width="100" relative="1" as="geometry"><mxPoint x="220" y="100" as="sourcePoint"/><mxPoint x="260" y="120" as="targetPoint"/></mxGeometry></mxCell><mxCell id="PegGbP0o_FV90BbM3bnu-28" value="LIN" style="shape=link;html=1;fillColor=#d5e8d4;strokeColor=#82b366;" parent="PegGbP0o_FV90BbM3bnu-12" edge="1"><mxGeometry width="100" relative="1" as="geometry"><mxPoint x="40" y="160" as="sourcePoint"/><mxPoint x="40" y="360" as="targetPoint"/></mxGeometry></mxCell><mxCell id="PegGbP0o_FV90BbM3bnu-29" value="Ethernet" style="shape=link;html=1;entryX=0.5;entryY=0;entryDx=0;entryDy=0;exitX=0.5;exitY=1;exitDx=0;exitDy=0;strokeColor=#FF66FF;" parent="PegGbP0o_FV90BbM3bnu-12" source="PegGbP0o_FV90BbM3bnu-24" target="PegGbP0o_FV90BbM3bnu-30" edge="1"><mxGeometry width="100" relative="1" as="geometry"><mxPoint x="180" y="160" as="sourcePoint"/><mxPoint x="180" y="240" as="targetPoint"/></mxGeometry></mxCell><mxCell id="PegGbP0o_FV90BbM3bnu-30" value="Switch" style="rounded=0;whiteSpace=wrap;html=1;strokeColor=#36393d;fillColor=#ffff88;" parent="PegGbP0o_FV90BbM3bnu-12" vertex="1"><mxGeometry x="160" y="240" width="40" height="40" as="geometry"/></mxCell><mxCell id="PegGbP0o_FV90BbM3bnu-32" value="ECU5" style="rounded=0;whiteSpace=wrap;html=1;fillColor=#a20025;strokeColor=#6F0000;fontColor=#ffffff;" parent="PegGbP0o_FV90BbM3bnu-12" vertex="1"><mxGeometry x="80" y="200" width="40" height="40" as="geometry"/></mxCell><mxCell id="PegGbP0o_FV90BbM3bnu-33" value="ECU6" style="rounded=0;whiteSpace=wrap;html=1;fillColor=#a20025;strokeColor=#6F0000;fontColor=#ffffff;" parent="PegGbP0o_FV90BbM3bnu-12" vertex="1"><mxGeometry x="80" y="280" width="40" height="40" as="geometry"/></mxCell><mxCell id="PegGbP0o_FV90BbM3bnu-34" value="ECU7" style="rounded=0;whiteSpace=wrap;html=1;fillColor=#a20025;strokeColor=#6F0000;fontColor=#ffffff;" parent="PegGbP0o_FV90BbM3bnu-12" vertex="1"><mxGeometry x="80" y="360" width="40" height="40" as="geometry"/></mxCell><mxCell id="PegGbP0o_FV90BbM3bnu-35" value="ECU9" style="rounded=0;whiteSpace=wrap;html=1;fillColor=#a20025;strokeColor=#6F0000;fontColor=#ffffff;" parent="PegGbP0o_FV90BbM3bnu-12" vertex="1"><mxGeometry x="160" y="320" width="40" height="40" as="geometry"/></mxCell><mxCell id="PegGbP0o_FV90BbM3bnu-36" value="ECU8" style="rounded=0;whiteSpace=wrap;html=1;fillColor=#a20025;strokeColor=#6F0000;fontColor=#ffffff;" parent="PegGbP0o_FV90BbM3bnu-12" vertex="1"><mxGeometry x="260" y="240" width="40" height="40" as="geometry"/></mxCell><mxCell id="PegGbP0o_FV90BbM3bnu-37" value="Ethernet" style="shape=link;html=1;entryX=0.25;entryY=0;entryDx=0;entryDy=0;exitX=0.25;exitY=1;exitDx=0;exitDy=0;strokeColor=#FF66FF;" parent="PegGbP0o_FV90BbM3bnu-12" source="PegGbP0o_FV90BbM3bnu-30" target="PegGbP0o_FV90BbM3bnu-35" edge="1"><mxGeometry x="-0.5" width="100" relative="1" as="geometry"><mxPoint x="220" y="300" as="sourcePoint"/><mxPoint x="189.99999999999977" y="249.9999999999999" as="targetPoint"/><mxPoint as="offset"/></mxGeometry></mxCell><mxCell id="PegGbP0o_FV90BbM3bnu-38" value="Ethernet" style="shape=link;html=1;entryX=1;entryY=0.5;entryDx=0;entryDy=0;exitX=0;exitY=0.5;exitDx=0;exitDy=0;strokeColor=#FF66FF;" parent="PegGbP0o_FV90BbM3bnu-12" source="PegGbP0o_FV90BbM3bnu-36" target="PegGbP0o_FV90BbM3bnu-30" edge="1"><mxGeometry width="100" relative="1" as="geometry"><mxPoint x="190" y="290" as="sourcePoint"/><mxPoint x="190" y="330" as="targetPoint"/></mxGeometry></mxCell><mxCell id="1uNNtF3XoOrTsBVOuk05-6" value="UDS Request" style="html=1;fillColor=#d80073;dashed=1;dashPattern=1 1;fontSize=7;strokeColor=#FF66FF;entryX=0.75;entryY=0;entryDx=0;entryDy=0;exitX=0.75;exitY=1;exitDx=0;exitDy=0;" parent="PegGbP0o_FV90BbM3bnu-12" source="PegGbP0o_FV90BbM3bnu-24" target="PegGbP0o_FV90BbM3bnu-30" edge="1"><mxGeometry x="-0.5" width="100" relative="1" as="geometry"><mxPoint x="250" y="170" as="sourcePoint"/><mxPoint x="240" y="220" as="targetPoint"/><mxPoint as="offset"/></mxGeometry></mxCell><mxCell id="1uNNtF3XoOrTsBVOuk05-8" value="UDS Request" style="html=1;fillColor=#d80073;dashed=1;dashPattern=1 1;fontSize=7;strokeColor=#FF66FF;entryX=0;entryY=0.25;entryDx=0;entryDy=0;exitX=1;exitY=0.25;exitDx=0;exitDy=0;" parent="PegGbP0o_FV90BbM3bnu-12" source="PegGbP0o_FV90BbM3bnu-30" target="PegGbP0o_FV90BbM3bnu-36" edge="1"><mxGeometry width="100" relative="1" as="geometry"><mxPoint x="280" y="200" as="sourcePoint"/><mxPoint x="199.99999999999977" y="249.9999999999999" as="targetPoint"/><mxPoint as="offset"/></mxGeometry></mxCell><mxCell id="1uNNtF3XoOrTsBVOuk05-9" value="UDS Request" style="html=1;fillColor=#d80073;dashed=1;dashPattern=1 1;fontSize=7;strokeColor=#FF66FF;entryX=1;entryY=0;entryDx=0;entryDy=0;exitX=1;exitY=1;exitDx=0;exitDy=0;" parent="PegGbP0o_FV90BbM3bnu-12" source="PegGbP0o_FV90BbM3bnu-30" target="PegGbP0o_FV90BbM3bnu-35" edge="1"><mxGeometry x="0.5" width="100" relative="1" as="geometry"><mxPoint x="229.99999999999977" y="309.9999999999999" as="sourcePoint"/><mxPoint x="289.9999999999998" y="309.9999999999999" as="targetPoint"/><mxPoint as="offset"/></mxGeometry></mxCell><mxCell id="1uNNtF3XoOrTsBVOuk05-4" value="UDS Request" style="html=1;strokeColor=#82b366;fillColor=#d5e8d4;dashed=1;dashPattern=1 1;fontSize=7;exitX=0;exitY=0.25;exitDx=0;exitDy=0;entryX=0;entryY=0.75;entryDx=0;entryDy=0;" parent="PegGbP0o_FV90BbM3bnu-12" source="PegGbP0o_FV90BbM3bnu-23" target="PegGbP0o_FV90BbM3bnu-34" edge="1"><mxGeometry x="-0.5924" width="100" relative="1" as="geometry"><mxPoint x="-110" y="209.9999999999999" as="sourcePoint"/><mxPoint x="30" y="380" as="targetPoint"/><Array as="points"><mxPoint x="30" y="160"/><mxPoint x="30" y="370"/></Array><mxPoint as="offset"/></mxGeometry></mxCell><mxCell id="PegGbP0o_FV90BbM3bnu-27" value="" style="shape=link;html=1;exitX=0.5;exitY=0;exitDx=0;exitDy=0;fillColor=#f8cecc;strokeColor=#b85450;" parent="kVYuDdD-bTvSPbI2ndRd-1" source="PegGbP0o_FV90BbM3bnu-23" edge="1"><mxGeometry width="100" relative="1" as="geometry"><mxPoint x="390" y="270" as="sourcePoint"/><mxPoint x="320" y="140" as="targetPoint"/></mxGeometry></mxCell><mxCell id="PegGbP0o_FV90BbM3bnu-40" value="" style="shape=link;html=1;exitX=0;exitY=0.5;exitDx=0;exitDy=0;fillColor=#d5e8d4;strokeColor=#82b366;" parent="kVYuDdD-bTvSPbI2ndRd-1" source="PegGbP0o_FV90BbM3bnu-23" edge="1"><mxGeometry width="100" relative="1" as="geometry"><mxPoint x="140" y="210" as="sourcePoint"/><mxPoint x="280" y="200" as="targetPoint"/></mxGeometry></mxCell><mxCell id="PegGbP0o_FV90BbM3bnu-41" value="" style="shape=link;html=1;entryX=0;entryY=0.5;entryDx=0;entryDy=0;fillColor=#d5e8d4;strokeColor=#82b366;" parent="kVYuDdD-bTvSPbI2ndRd-1" target="PegGbP0o_FV90BbM3bnu-32" edge="1"><mxGeometry width="100" relative="1" as="geometry"><mxPoint x="280" y="260" as="sourcePoint"/><mxPoint x="290" y="210" as="targetPoint"/></mxGeometry></mxCell><mxCell id="PegGbP0o_FV90BbM3bnu-42" value="" style="shape=link;html=1;entryX=0;entryY=0.5;entryDx=0;entryDy=0;fillColor=#d5e8d4;strokeColor=#82b366;" parent="kVYuDdD-bTvSPbI2ndRd-1" target="PegGbP0o_FV90BbM3bnu-33" edge="1"><mxGeometry width="100" relative="1" as="geometry"><mxPoint x="280" y="340" as="sourcePoint"/><mxPoint x="330" y="270" as="targetPoint"/></mxGeometry></mxCell><mxCell id="PegGbP0o_FV90BbM3bnu-43" value="" style="shape=link;html=1;entryX=0;entryY=0.5;entryDx=0;entryDy=0;fillColor=#d5e8d4;strokeColor=#82b366;" parent="kVYuDdD-bTvSPbI2ndRd-1" target="PegGbP0o_FV90BbM3bnu-34" edge="1"><mxGeometry width="100" relative="1" as="geometry"><mxPoint x="280" y="400" as="sourcePoint"/><mxPoint x="330" y="350" as="targetPoint"/></mxGeometry></mxCell><mxCell id="PegGbP0o_FV90BbM3bnu-44" value="only Client role" style="rounded=0;whiteSpace=wrap;html=1;strokeColor=#006EAF;fillColor=#1ba1e2;fontColor=#ffffff;" parent="kVYuDdD-bTvSPbI2ndRd-1" vertex="1"><mxGeometry x="20" y="320" width="80" height="40" as="geometry"/></mxCell><mxCell id="PegGbP0o_FV90BbM3bnu-45" value="only Server role" style="rounded=0;whiteSpace=wrap;html=1;strokeColor=#6F0000;fillColor=#a20025;fontColor=#ffffff;" parent="kVYuDdD-bTvSPbI2ndRd-1" vertex="1"><mxGeometry x="20" y="380" width="80" height="40" as="geometry"/></mxCell><mxCell id="PegGbP0o_FV90BbM3bnu-46" value="Server &amp;amp; Client role" style="rounded=0;whiteSpace=wrap;html=1;strokeColor=#3700CC;fillColor=#6a00ff;fontColor=#ffffff;" parent="kVYuDdD-bTvSPbI2ndRd-1" vertex="1"><mxGeometry x="20" y="440" width="80" height="40" as="geometry"/></mxCell><mxCell id="PegGbP0o_FV90BbM3bnu-47" value="Explanation:" style="text;html=1;strokeColor=none;fillColor=none;align=left;verticalAlign=middle;whiteSpace=wrap;rounded=0;fontStyle=1;fontSize=14;" parent="kVYuDdD-bTvSPbI2ndRd-1" vertex="1"><mxGeometry x="20" y="280" width="80" height="40" as="geometry"/></mxCell><mxCell id="1uNNtF3XoOrTsBVOuk05-0" value="UDS Request" style="html=1;strokeColor=#b85450;fillColor=#f8cecc;dashed=1;dashPattern=1 1;fontSize=7;" parent="kVYuDdD-bTvSPbI2ndRd-1" edge="1"><mxGeometry width="100" relative="1" as="geometry"><mxPoint x="130" y="150" as="sourcePoint"/><mxPoint x="230" y="150" as="targetPoint"/></mxGeometry></mxCell><mxCell id="1uNNtF3XoOrTsBVOuk05-2" value="UDS Request" style="html=1;strokeColor=#b85450;fillColor=#f8cecc;dashed=1;dashPattern=1 1;fontSize=7;entryX=0.25;entryY=1;entryDx=0;entryDy=0;" parent="kVYuDdD-bTvSPbI2ndRd-1" target="PegGbP0o_FV90BbM3bnu-18" edge="1"><mxGeometry width="100" relative="1" as="geometry"><mxPoint x="280" y="130" as="sourcePoint"/><mxPoint x="500" y="130" as="targetPoint"/><Array as="points"><mxPoint x="490" y="130"/></Array></mxGeometry></mxCell><mxCell id="OMdjaZ_IhQC_8OE2vStf-0" value="" style="html=1;strokeColor=#b85450;fillColor=#f8cecc;dashed=1;dashPattern=1 1;fontSize=7;entryX=0.25;entryY=1;entryDx=0;entryDy=0;" parent="kVYuDdD-bTvSPbI2ndRd-1" target="PegGbP0o_FV90BbM3bnu-14" edge="1"><mxGeometry width="100" relative="1" as="geometry"><mxPoint x="320" y="130" as="sourcePoint"/><mxPoint x="190" y="230" as="targetPoint"/><Array as="points"><mxPoint x="330" y="130"/></Array></mxGeometry></mxCell><mxCell id="OMdjaZ_IhQC_8OE2vStf-1" value="" style="html=1;strokeColor=#b85450;fillColor=#f8cecc;dashed=1;dashPattern=1 1;fontSize=7;entryX=0.25;entryY=0;entryDx=0;entryDy=0;" parent="kVYuDdD-bTvSPbI2ndRd-1" target="PegGbP0o_FV90BbM3bnu-23" edge="1"><mxGeometry width="100" relative="1" as="geometry"><mxPoint x="300" y="130" as="sourcePoint"/><mxPoint x="340" y="130.0000000000001" as="targetPoint"/><Array as="points"><mxPoint x="310" y="130"/></Array></mxGeometry></mxCell><mxCell id="OMdjaZ_IhQC_8OE2vStf-2" value="" style="html=1;strokeColor=#b85450;fillColor=#f8cecc;dashed=1;dashPattern=1 1;fontSize=7;entryX=0.25;entryY=0;entryDx=0;entryDy=0;" parent="kVYuDdD-bTvSPbI2ndRd-1" target="PegGbP0o_FV90BbM3bnu-24" edge="1"><mxGeometry width="100" relative="1" as="geometry"><mxPoint x="440" y="130" as="sourcePoint"/><mxPoint x="320" y="169.9999999999999" as="targetPoint"/><Array as="points"><mxPoint x="450" y="130"/></Array></mxGeometry></mxCell><mxCell id="OMdjaZ_IhQC_8OE2vStf-4" value="" style="html=1;strokeColor=#82b366;fillColor=#d5e8d4;dashed=1;dashPattern=1 1;fontSize=7;entryX=0;entryY=0.25;entryDx=0;entryDy=0;" parent="kVYuDdD-bTvSPbI2ndRd-1" target="PegGbP0o_FV90BbM3bnu-32" edge="1"><mxGeometry x="-0.5924" width="100" relative="1" as="geometry"><mxPoint x="270" y="240" as="sourcePoint"/><mxPoint x="150" y="430" as="targetPoint"/><Array as="points"><mxPoint x="270" y="250"/></Array><mxPoint as="offset"/></mxGeometry></mxCell><mxCell id="OMdjaZ_IhQC_8OE2vStf-5" value="" style="html=1;strokeColor=#82b366;fillColor=#d5e8d4;dashed=1;dashPattern=1 1;fontSize=7;entryX=0;entryY=0.25;entryDx=0;entryDy=0;" parent="kVYuDdD-bTvSPbI2ndRd-1" target="PegGbP0o_FV90BbM3bnu-33" edge="1"><mxGeometry x="-0.5924" width="100" relative="1" as="geometry"><mxPoint x="270" y="320" as="sourcePoint"/><mxPoint x="220" y="339.9999999999999" as="targetPoint"/><Array as="points"><mxPoint x="270" y="330"/></Array><mxPoint as="offset"/></mxGeometry></mxCell><mxCell id="hqwpej-4IqwZnjgD5r96-0" value="" style="rounded=0;whiteSpace=wrap;html=1;fillColor=none;" parent="kVYuDdD-bTvSPbI2ndRd-1" vertex="1"><mxGeometry x="10" y="280" width="110" height="210" as="geometry"/></mxCell></root></mxGraphModel></diagram><diagram name="Gateway - response" id="EYrk-a6-NOc8JjcXgO_h"><mxGraphModel dx="1177" dy="816" grid="1" gridSize="10" guides="1" tooltips="1" connect="1" arrows="1" fold="1" page="1" pageScale="1" pageWidth="600" pageHeight="500" math="0" shadow="0"><root><mxCell id="g2b5pbjhhAs5fYfLY55k-0"/><mxCell id="g2b5pbjhhAs5fYfLY55k-1" parent="g2b5pbjhhAs5fYfLY55k-0"/><mxCell id="g2b5pbjhhAs5fYfLY55k-2" value="Diagnostic Tester" style="rounded=0;whiteSpace=wrap;html=1;fillColor=#1ba1e2;strokeColor=#006EAF;fontColor=#ffffff;" parent="g2b5pbjhhAs5fYfLY55k-1" vertex="1"><mxGeometry x="40" y="120" width="80" height="40" as="geometry"/></mxCell><mxCell id="g2b5pbjhhAs5fYfLY55k-3" value="port OBD" style="ellipse;whiteSpace=wrap;html=1;fillColor=#ffff88;strokeColor=#36393d;" parent="g2b5pbjhhAs5fYfLY55k-1" vertex="1"><mxGeometry x="240" y="120" width="40" height="40" as="geometry"/></mxCell><mxCell id="g2b5pbjhhAs5fYfLY55k-4" value="CAN" style="shape=link;html=1;exitX=1;exitY=0.5;exitDx=0;exitDy=0;entryX=0;entryY=0.5;entryDx=0;entryDy=0;strokeColor=#b85450;fillColor=#f8cecc;" parent="g2b5pbjhhAs5fYfLY55k-1" source="g2b5pbjhhAs5fYfLY55k-2" target="g2b5pbjhhAs5fYfLY55k-3" edge="1"><mxGeometry width="100" relative="1" as="geometry"><mxPoint x="130" y="130" as="sourcePoint"/><mxPoint x="230" y="130" as="targetPoint"/></mxGeometry></mxCell><mxCell id="g2b5pbjhhAs5fYfLY55k-5" value="CAN" style="shape=link;html=1;exitX=1;exitY=0.5;exitDx=0;exitDy=0;fillColor=#f8cecc;strokeColor=#b85450;" parent="g2b5pbjhhAs5fYfLY55k-1" source="g2b5pbjhhAs5fYfLY55k-3" edge="1"><mxGeometry width="100" relative="1" as="geometry"><mxPoint x="290" y="140" as="sourcePoint"/><mxPoint x="500" y="140" as="targetPoint"/></mxGeometry></mxCell><mxCell id="g2b5pbjhhAs5fYfLY55k-6" value="Vehicle" style="swimlane;dashed=1;fillColor=#ffff88;strokeColor=#36393d;" parent="g2b5pbjhhAs5fYfLY55k-1" vertex="1"><mxGeometry x="240" y="40" width="320" height="440" as="geometry"/></mxCell><mxCell id="g2b5pbjhhAs5fYfLY55k-7" value="ECU1" style="rounded=0;whiteSpace=wrap;html=1;fillColor=#a20025;strokeColor=#6F0000;fontColor=#ffffff;" parent="g2b5pbjhhAs5fYfLY55k-6" vertex="1"><mxGeometry x="80" y="40" width="40" height="40" as="geometry"/></mxCell><mxCell id="g2b5pbjhhAs5fYfLY55k-8" value="" style="shape=link;html=1;exitX=0.5;exitY=1;exitDx=0;exitDy=0;fillColor=#f8cecc;strokeColor=#b85450;" parent="g2b5pbjhhAs5fYfLY55k-6" source="g2b5pbjhhAs5fYfLY55k-7" edge="1"><mxGeometry width="100" relative="1" as="geometry"><mxPoint x="130" y="150" as="sourcePoint"/><mxPoint x="100" y="100" as="targetPoint"/></mxGeometry></mxCell><mxCell id="g2b5pbjhhAs5fYfLY55k-9" value="ECU2" style="rounded=0;whiteSpace=wrap;html=1;fillColor=#a20025;strokeColor=#6F0000;fontColor=#ffffff;" parent="g2b5pbjhhAs5fYfLY55k-6" vertex="1"><mxGeometry x="240" y="40" width="40" height="40" as="geometry"/></mxCell><mxCell id="g2b5pbjhhAs5fYfLY55k-10" value="" style="shape=link;html=1;exitX=0.5;exitY=1;exitDx=0;exitDy=0;fillColor=#f8cecc;strokeColor=#b85450;" parent="g2b5pbjhhAs5fYfLY55k-6" source="g2b5pbjhhAs5fYfLY55k-9" edge="1"><mxGeometry width="100" relative="1" as="geometry"><mxPoint x="240" y="160" as="sourcePoint"/><mxPoint x="260" y="100" as="targetPoint"/></mxGeometry></mxCell><mxCell id="g2b5pbjhhAs5fYfLY55k-11" value="ECU3" style="rounded=0;whiteSpace=wrap;html=1;fillColor=#6a00ff;strokeColor=#3700CC;fontColor=#ffffff;" parent="g2b5pbjhhAs5fYfLY55k-6" vertex="1"><mxGeometry x="60" y="120" width="40" height="40" as="geometry"/></mxCell><mxCell id="g2b5pbjhhAs5fYfLY55k-12" value="ECU4" style="rounded=0;whiteSpace=wrap;html=1;fillColor=#6a00ff;strokeColor=#3700CC;fontColor=#ffffff;" parent="g2b5pbjhhAs5fYfLY55k-6" vertex="1"><mxGeometry x="200" y="120" width="40" height="40" as="geometry"/></mxCell><mxCell id="g2b5pbjhhAs5fYfLY55k-13" value="" style="shape=link;html=1;entryX=0.5;entryY=0;entryDx=0;entryDy=0;fillColor=#f8cecc;strokeColor=#b85450;" parent="g2b5pbjhhAs5fYfLY55k-6" target="g2b5pbjhhAs5fYfLY55k-12" edge="1"><mxGeometry width="100" relative="1" as="geometry"><mxPoint x="220" y="100" as="sourcePoint"/><mxPoint x="260" y="120" as="targetPoint"/></mxGeometry></mxCell><mxCell id="g2b5pbjhhAs5fYfLY55k-14" value="LIN" style="shape=link;html=1;fillColor=#d5e8d4;strokeColor=#82b366;" parent="g2b5pbjhhAs5fYfLY55k-6" edge="1"><mxGeometry width="100" relative="1" as="geometry"><mxPoint x="40" y="160" as="sourcePoint"/><mxPoint x="40" y="360" as="targetPoint"/></mxGeometry></mxCell><mxCell id="g2b5pbjhhAs5fYfLY55k-15" value="Ethernet" style="shape=link;html=1;entryX=0.5;entryY=0;entryDx=0;entryDy=0;exitX=0.5;exitY=1;exitDx=0;exitDy=0;strokeColor=#FF66FF;" parent="g2b5pbjhhAs5fYfLY55k-6" source="g2b5pbjhhAs5fYfLY55k-12" target="g2b5pbjhhAs5fYfLY55k-16" edge="1"><mxGeometry width="100" relative="1" as="geometry"><mxPoint x="180" y="160" as="sourcePoint"/><mxPoint x="180" y="240" as="targetPoint"/></mxGeometry></mxCell><mxCell id="g2b5pbjhhAs5fYfLY55k-16" value="Switch" style="rounded=0;whiteSpace=wrap;html=1;strokeColor=#36393d;fillColor=#ffff88;" parent="g2b5pbjhhAs5fYfLY55k-6" vertex="1"><mxGeometry x="160" y="240" width="40" height="40" as="geometry"/></mxCell><mxCell id="g2b5pbjhhAs5fYfLY55k-17" value="ECU5" style="rounded=0;whiteSpace=wrap;html=1;fillColor=#a20025;strokeColor=#6F0000;fontColor=#ffffff;" parent="g2b5pbjhhAs5fYfLY55k-6" vertex="1"><mxGeometry x="80" y="200" width="40" height="40" as="geometry"/></mxCell><mxCell id="g2b5pbjhhAs5fYfLY55k-18" value="ECU6" style="rounded=0;whiteSpace=wrap;html=1;fillColor=#a20025;strokeColor=#6F0000;fontColor=#ffffff;" parent="g2b5pbjhhAs5fYfLY55k-6" vertex="1"><mxGeometry x="80" y="280" width="40" height="40" as="geometry"/></mxCell><mxCell id="g2b5pbjhhAs5fYfLY55k-19" value="ECU7" style="rounded=0;whiteSpace=wrap;html=1;fillColor=#a20025;strokeColor=#6F0000;fontColor=#ffffff;" parent="g2b5pbjhhAs5fYfLY55k-6" vertex="1"><mxGeometry x="80" y="360" width="40" height="40" as="geometry"/></mxCell><mxCell id="g2b5pbjhhAs5fYfLY55k-20" value="ECU9" style="rounded=0;whiteSpace=wrap;html=1;fillColor=#a20025;strokeColor=#6F0000;fontColor=#ffffff;" parent="g2b5pbjhhAs5fYfLY55k-6" vertex="1"><mxGeometry x="160" y="320" width="40" height="40" as="geometry"/></mxCell><mxCell id="g2b5pbjhhAs5fYfLY55k-21" value="ECU8" style="rounded=0;whiteSpace=wrap;html=1;fillColor=#a20025;strokeColor=#6F0000;fontColor=#ffffff;" parent="g2b5pbjhhAs5fYfLY55k-6" vertex="1"><mxGeometry x="260" y="240" width="40" height="40" as="geometry"/></mxCell><mxCell id="g2b5pbjhhAs5fYfLY55k-22" value="Ethernet" style="shape=link;html=1;entryX=0.25;entryY=0;entryDx=0;entryDy=0;exitX=0.25;exitY=1;exitDx=0;exitDy=0;strokeColor=#FF66FF;" parent="g2b5pbjhhAs5fYfLY55k-6" source="g2b5pbjhhAs5fYfLY55k-16" target="g2b5pbjhhAs5fYfLY55k-20" edge="1"><mxGeometry x="-0.5" width="100" relative="1" as="geometry"><mxPoint x="220" y="300" as="sourcePoint"/><mxPoint x="189.99999999999977" y="249.9999999999999" as="targetPoint"/><mxPoint as="offset"/></mxGeometry></mxCell><mxCell id="g2b5pbjhhAs5fYfLY55k-23" value="Ethernet" style="shape=link;html=1;entryX=1;entryY=0.5;entryDx=0;entryDy=0;exitX=0;exitY=0.5;exitDx=0;exitDy=0;strokeColor=#FF66FF;" parent="g2b5pbjhhAs5fYfLY55k-6" source="g2b5pbjhhAs5fYfLY55k-21" target="g2b5pbjhhAs5fYfLY55k-16" edge="1"><mxGeometry width="100" relative="1" as="geometry"><mxPoint x="190" y="290" as="sourcePoint"/><mxPoint x="190" y="330" as="targetPoint"/></mxGeometry></mxCell><mxCell id="g2b5pbjhhAs5fYfLY55k-24" value="UDS Response" style="html=1;fillColor=#d80073;dashed=1;dashPattern=1 1;fontSize=7;strokeColor=#FF66FF;entryX=0.75;entryY=0;entryDx=0;entryDy=0;exitX=0.75;exitY=1;exitDx=0;exitDy=0;endArrow=none;endFill=0;startArrow=classic;startFill=1;" parent="g2b5pbjhhAs5fYfLY55k-6" source="g2b5pbjhhAs5fYfLY55k-12" target="g2b5pbjhhAs5fYfLY55k-16" edge="1"><mxGeometry x="-0.5" width="100" relative="1" as="geometry"><mxPoint x="250" y="170" as="sourcePoint"/><mxPoint x="240" y="220" as="targetPoint"/><mxPoint as="offset"/></mxGeometry></mxCell><mxCell id="g2b5pbjhhAs5fYfLY55k-25" value="UDS Response" style="html=1;fillColor=#d80073;dashed=1;dashPattern=1 1;fontSize=7;strokeColor=#FF66FF;entryX=0;entryY=0.25;entryDx=0;entryDy=0;exitX=1;exitY=0.25;exitDx=0;exitDy=0;startArrow=classic;startFill=1;endArrow=none;endFill=0;" parent="g2b5pbjhhAs5fYfLY55k-6" source="g2b5pbjhhAs5fYfLY55k-16" target="g2b5pbjhhAs5fYfLY55k-21" edge="1"><mxGeometry width="100" relative="1" as="geometry"><mxPoint x="280" y="200" as="sourcePoint"/><mxPoint x="199.99999999999977" y="249.9999999999999" as="targetPoint"/><mxPoint as="offset"/></mxGeometry></mxCell><mxCell id="g2b5pbjhhAs5fYfLY55k-26" value="UDS Response" style="html=1;fillColor=#d80073;dashed=1;dashPattern=1 1;fontSize=7;strokeColor=#FF66FF;entryX=1;entryY=0;entryDx=0;entryDy=0;exitX=1;exitY=1;exitDx=0;exitDy=0;startArrow=classic;startFill=1;endArrow=none;endFill=0;" parent="g2b5pbjhhAs5fYfLY55k-6" source="g2b5pbjhhAs5fYfLY55k-16" target="g2b5pbjhhAs5fYfLY55k-20" edge="1"><mxGeometry x="0.5" width="100" relative="1" as="geometry"><mxPoint x="229.99999999999977" y="309.9999999999999" as="sourcePoint"/><mxPoint x="289.9999999999998" y="309.9999999999999" as="targetPoint"/><mxPoint as="offset"/></mxGeometry></mxCell><mxCell id="g2b5pbjhhAs5fYfLY55k-27" value="" style="shape=link;html=1;exitX=0.5;exitY=0;exitDx=0;exitDy=0;fillColor=#f8cecc;strokeColor=#b85450;" parent="g2b5pbjhhAs5fYfLY55k-1" source="g2b5pbjhhAs5fYfLY55k-11" edge="1"><mxGeometry width="100" relative="1" as="geometry"><mxPoint x="390" y="270" as="sourcePoint"/><mxPoint x="320" y="140" as="targetPoint"/></mxGeometry></mxCell><mxCell id="g2b5pbjhhAs5fYfLY55k-28" value="" style="shape=link;html=1;exitX=0;exitY=0.5;exitDx=0;exitDy=0;fillColor=#d5e8d4;strokeColor=#82b366;" parent="g2b5pbjhhAs5fYfLY55k-1" source="g2b5pbjhhAs5fYfLY55k-11" edge="1"><mxGeometry width="100" relative="1" as="geometry"><mxPoint x="140" y="210" as="sourcePoint"/><mxPoint x="280" y="200" as="targetPoint"/></mxGeometry></mxCell><mxCell id="g2b5pbjhhAs5fYfLY55k-29" value="" style="shape=link;html=1;entryX=0;entryY=0.5;entryDx=0;entryDy=0;fillColor=#d5e8d4;strokeColor=#82b366;" parent="g2b5pbjhhAs5fYfLY55k-1" target="g2b5pbjhhAs5fYfLY55k-17" edge="1"><mxGeometry width="100" relative="1" as="geometry"><mxPoint x="280" y="260" as="sourcePoint"/><mxPoint x="290" y="210" as="targetPoint"/></mxGeometry></mxCell><mxCell id="g2b5pbjhhAs5fYfLY55k-30" value="" style="shape=link;html=1;entryX=0;entryY=0.5;entryDx=0;entryDy=0;fillColor=#d5e8d4;strokeColor=#82b366;" parent="g2b5pbjhhAs5fYfLY55k-1" target="g2b5pbjhhAs5fYfLY55k-18" edge="1"><mxGeometry width="100" relative="1" as="geometry"><mxPoint x="280" y="340" as="sourcePoint"/><mxPoint x="330" y="270" as="targetPoint"/></mxGeometry></mxCell><mxCell id="g2b5pbjhhAs5fYfLY55k-31" value="" style="shape=link;html=1;entryX=0;entryY=0.5;entryDx=0;entryDy=0;fillColor=#d5e8d4;strokeColor=#82b366;" parent="g2b5pbjhhAs5fYfLY55k-1" target="g2b5pbjhhAs5fYfLY55k-19" edge="1"><mxGeometry width="100" relative="1" as="geometry"><mxPoint x="280" y="400" as="sourcePoint"/><mxPoint x="330" y="350" as="targetPoint"/></mxGeometry></mxCell><mxCell id="g2b5pbjhhAs5fYfLY55k-32" value="only Client role" style="rounded=0;whiteSpace=wrap;html=1;strokeColor=#006EAF;fillColor=#1ba1e2;fontColor=#ffffff;" parent="g2b5pbjhhAs5fYfLY55k-1" vertex="1"><mxGeometry x="20" y="320" width="80" height="40" as="geometry"/></mxCell><mxCell id="g2b5pbjhhAs5fYfLY55k-33" value="only Server role" style="rounded=0;whiteSpace=wrap;html=1;strokeColor=#6F0000;fillColor=#a20025;fontColor=#ffffff;" parent="g2b5pbjhhAs5fYfLY55k-1" vertex="1"><mxGeometry x="20" y="380" width="80" height="40" as="geometry"/></mxCell><mxCell id="g2b5pbjhhAs5fYfLY55k-34" value="Server &amp;amp; Client role" style="rounded=0;whiteSpace=wrap;html=1;strokeColor=#3700CC;fillColor=#6a00ff;fontColor=#ffffff;" parent="g2b5pbjhhAs5fYfLY55k-1" vertex="1"><mxGeometry x="20" y="440" width="80" height="40" as="geometry"/></mxCell><mxCell id="g2b5pbjhhAs5fYfLY55k-35" value="Explanation:" style="text;html=1;strokeColor=none;fillColor=none;align=left;verticalAlign=middle;whiteSpace=wrap;rounded=0;fontStyle=1;fontSize=14;" parent="g2b5pbjhhAs5fYfLY55k-1" vertex="1"><mxGeometry x="20" y="280" width="80" height="40" as="geometry"/></mxCell><mxCell id="g2b5pbjhhAs5fYfLY55k-36" value="UDS Response" style="html=1;strokeColor=#b85450;fillColor=#f8cecc;dashed=1;dashPattern=1 1;fontSize=7;endArrow=none;endFill=0;startArrow=classic;startFill=1;" parent="g2b5pbjhhAs5fYfLY55k-1" edge="1"><mxGeometry width="100" relative="1" as="geometry"><mxPoint x="130" y="150" as="sourcePoint"/><mxPoint x="230" y="150" as="targetPoint"/></mxGeometry></mxCell><mxCell id="g2b5pbjhhAs5fYfLY55k-38" value="UDS Response" style="html=1;strokeColor=#82b366;fillColor=#d5e8d4;dashed=1;dashPattern=1 1;fontSize=7;exitX=0;exitY=0.25;exitDx=0;exitDy=0;" parent="g2b5pbjhhAs5fYfLY55k-1" source="g2b5pbjhhAs5fYfLY55k-19" edge="1"><mxGeometry width="100" relative="1" as="geometry"><mxPoint x="130" y="249.9999999999999" as="sourcePoint"/><mxPoint x="290" y="350" as="targetPoint"/><Array as="points"><mxPoint x="290" y="400"/></Array></mxGeometry></mxCell><mxCell id="g2b5pbjhhAs5fYfLY55k-40" value="UDS Response" style="html=1;strokeColor=#b85450;fillColor=#f8cecc;dashed=1;dashPattern=1 1;fontSize=7;endArrow=none;endFill=0;startArrow=classic;startFill=1;entryX=0.25;entryY=1;entryDx=0;entryDy=0;" parent="g2b5pbjhhAs5fYfLY55k-1" target="g2b5pbjhhAs5fYfLY55k-9" edge="1"><mxGeometry width="100" relative="1" as="geometry"><mxPoint x="400" y="130" as="sourcePoint"/><mxPoint x="490" y="130" as="targetPoint"/><Array as="points"><mxPoint x="490" y="130"/></Array></mxGeometry></mxCell><mxCell id="g2b5pbjhhAs5fYfLY55k-41" value="UDS Response" style="html=1;strokeColor=#b85450;fillColor=#f8cecc;dashed=1;dashPattern=1 1;fontSize=7;endArrow=none;endFill=0;startArrow=classic;startFill=1;entryX=0.25;entryY=0;entryDx=0;entryDy=0;" parent="g2b5pbjhhAs5fYfLY55k-1" target="g2b5pbjhhAs5fYfLY55k-12" edge="1"><mxGeometry width="100" relative="1" as="geometry"><mxPoint x="370" y="150" as="sourcePoint"/><mxPoint x="500.0000000000002" y="129.9999999999999" as="targetPoint"/><Array as="points"><mxPoint x="450" y="150"/></Array></mxGeometry></mxCell><mxCell id="g2b5pbjhhAs5fYfLY55k-42" value="UDS Response" style="html=1;strokeColor=#b85450;fillColor=#f8cecc;dashed=1;dashPattern=1 1;fontSize=7;endArrow=none;endFill=0;startArrow=classic;startFill=1;entryX=0.75;entryY=1;entryDx=0;entryDy=0;exitX=1;exitY=0.337;exitDx=0;exitDy=0;exitPerimeter=0;" parent="g2b5pbjhhAs5fYfLY55k-1" source="g2b5pbjhhAs5fYfLY55k-3" target="g2b5pbjhhAs5fYfLY55k-7" edge="1"><mxGeometry width="100" relative="1" as="geometry"><mxPoint x="360" y="170.0000000000001" as="sourcePoint"/><mxPoint x="420.0000000000002" y="180.0000000000001" as="targetPoint"/><Array as="points"><mxPoint x="350" y="133"/></Array></mxGeometry></mxCell><mxCell id="g2b5pbjhhAs5fYfLY55k-43" value="UDS Response" style="html=1;strokeColor=#b85450;fillColor=#f8cecc;dashed=1;dashPattern=1 1;fontSize=7;endArrow=none;endFill=0;startArrow=classic;startFill=1;entryX=1;entryY=0;entryDx=0;entryDy=0;exitX=1;exitY=1;exitDx=0;exitDy=0;" parent="g2b5pbjhhAs5fYfLY55k-1" source="g2b5pbjhhAs5fYfLY55k-3" target="g2b5pbjhhAs5fYfLY55k-11" edge="1"><mxGeometry width="100" relative="1" as="geometry"><mxPoint x="290" y="143.48000000000002" as="sourcePoint"/><mxPoint x="340" y="129.9999999999999" as="targetPoint"/><Array as="points"><mxPoint x="340" y="150"/></Array></mxGeometry></mxCell><mxCell id="g2b5pbjhhAs5fYfLY55k-45" value="UDS Response" style="html=1;strokeColor=#82b366;fillColor=#d5e8d4;dashed=1;dashPattern=1 1;fontSize=7;exitX=0;exitY=0.25;exitDx=0;exitDy=0;" parent="g2b5pbjhhAs5fYfLY55k-1" source="g2b5pbjhhAs5fYfLY55k-18" edge="1"><mxGeometry width="100" relative="1" as="geometry"><mxPoint x="330" y="420" as="sourcePoint"/><mxPoint x="290" y="270" as="targetPoint"/><Array as="points"><mxPoint x="290" y="330"/></Array></mxGeometry></mxCell><mxCell id="g2b5pbjhhAs5fYfLY55k-46" value="UDS Response" style="html=1;strokeColor=#82b366;fillColor=#d5e8d4;dashed=1;dashPattern=1 1;fontSize=7;exitX=0;exitY=0.25;exitDx=0;exitDy=0;" parent="g2b5pbjhhAs5fYfLY55k-1" source="g2b5pbjhhAs5fYfLY55k-17" edge="1"><mxGeometry width="100" relative="1" as="geometry"><mxPoint x="330" y="340" as="sourcePoint"/><mxPoint x="290" y="200" as="targetPoint"/><Array as="points"><mxPoint x="290" y="250"/></Array></mxGeometry></mxCell><mxCell id="yPKz4Go02_GNDAZPp40d-0" value="" style="rounded=0;whiteSpace=wrap;html=1;fillColor=none;" parent="g2b5pbjhhAs5fYfLY55k-1" vertex="1"><mxGeometry x="10" y="280" width="110" height="210" as="geometry"/></mxCell></root></mxGraphModel></diagram><diagram id="C53OIOGYQhfHuugrrB3Q" name="Message N_PDU Frame"><mxGraphModel dx="1177" dy="816" grid="1" gridSize="10" guides="1" tooltips="1" connect="1" arrows="1" fold="1" page="1" pageScale="1" pageWidth="1400" pageHeight="600" math="0" shadow="0"><root><mxCell id="0"/><mxCell id="1" parent="0"/><mxCell id="431Cj-UP-DE57Rfkr5Me-2" value="" style="endArrow=none;dashed=1;html=1;dashPattern=1 3;strokeWidth=2;" parent="1" edge="1"><mxGeometry width="50" height="50" relative="1" as="geometry"><mxPoint x="10" y="180" as="sourcePoint"/><mxPoint x="1390" y="180" as="targetPoint"/></mxGeometry></mxCell><mxCell id="431Cj-UP-DE57Rfkr5Me-3" value="" style="endArrow=none;dashed=1;html=1;dashPattern=1 3;strokeWidth=2;" parent="1" edge="1"><mxGeometry width="50" height="50" relative="1" as="geometry"><mxPoint x="10" y="340" as="sourcePoint"/><mxPoint x="1390" y="340" as="targetPoint"/></mxGeometry></mxCell><mxCell id="431Cj-UP-DE57Rfkr5Me-4" value="" style="endArrow=none;dashed=1;html=1;dashPattern=1 3;strokeWidth=2;" parent="1" edge="1"><mxGeometry width="50" height="50" relative="1" as="geometry"><mxPoint x="1210" y="490" as="sourcePoint"/><mxPoint x="1210" y="10" as="targetPoint"/></mxGeometry></mxCell><mxCell id="431Cj-UP-DE57Rfkr5Me-5" value="Layers of OSI Model" style="text;html=1;strokeColor=none;fillColor=none;align=center;verticalAlign=middle;whiteSpace=wrap;rounded=0;fontStyle=1;fontSize=22;" parent="1" vertex="1"><mxGeometry x="1230" y="10" width="160" height="50" as="geometry"/></mxCell><mxCell id="431Cj-UP-DE57Rfkr5Me-6" value="Layer 7 - Application&lt;br&gt;Layer 6 - Presentation&lt;br&gt;Layer 5 - Session" style="text;html=1;strokeColor=none;fillColor=none;align=center;verticalAlign=middle;whiteSpace=wrap;rounded=0;fontSize=16;perimeterSpacing=0;spacing=2;spacingTop=0;" parent="1" vertex="1"><mxGeometry x="1220" y="60" width="170" height="110" as="geometry"/></mxCell><mxCell id="431Cj-UP-DE57Rfkr5Me-10" value="Diagnostic Message" style="whiteSpace=wrap;html=1;align=center;fillColor=#dae8fc;strokeColor=#6c8ebf;" parent="1" vertex="1"><mxGeometry x="160" y="40" width="60" height="40" as="geometry"/></mxCell><mxCell id="431Cj-UP-DE57Rfkr5Me-11" value="Diagnostic Message" style="whiteSpace=wrap;html=1;align=center;fillColor=#ffe6cc;strokeColor=#d79b00;" parent="1" vertex="1"><mxGeometry x="240" y="120" width="280" height="40" as="geometry"/></mxCell><mxCell id="431Cj-UP-DE57Rfkr5Me-12" value="UDS Packet" style="whiteSpace=wrap;html=1;align=center;fillColor=#dae8fc;strokeColor=#6c8ebf;" parent="1" vertex="1"><mxGeometry x="160" y="200" width="60" height="40" as="geometry"/></mxCell><mxCell id="431Cj-UP-DE57Rfkr5Me-14" value="UDS Packet" style="whiteSpace=wrap;html=1;align=center;fillColor=#dae8fc;strokeColor=#6c8ebf;" parent="1" vertex="1"><mxGeometry x="720" y="200" width="60" height="40" as="geometry"/></mxCell><mxCell id="431Cj-UP-DE57Rfkr5Me-15" value="UDS Packet" style="whiteSpace=wrap;html=1;align=center;fillColor=#e1d5e7;strokeColor=#9673a6;" parent="1" vertex="1"><mxGeometry x="790" y="280" width="60" height="40" as="geometry"/></mxCell><mxCell id="431Cj-UP-DE57Rfkr5Me-16" value="UDS Packet" style="whiteSpace=wrap;html=1;align=center;fillColor=#dae8fc;strokeColor=#6c8ebf;" parent="1" vertex="1"><mxGeometry x="890" y="200" width="60" height="40" as="geometry"/></mxCell><mxCell id="431Cj-UP-DE57Rfkr5Me-17" value="UDS Packet" style="whiteSpace=wrap;html=1;align=center;fillColor=#dae8fc;strokeColor=#6c8ebf;" parent="1" vertex="1"><mxGeometry x="970" y="200" width="60" height="40" as="geometry"/></mxCell><mxCell id="431Cj-UP-DE57Rfkr5Me-19" value="UDS Packet" style="whiteSpace=wrap;html=1;align=center;fillColor=#ffe6cc;strokeColor=#d79b00;" parent="1" vertex="1"><mxGeometry x="240" y="280" width="60" height="40" as="geometry"/></mxCell><mxCell id="431Cj-UP-DE57Rfkr5Me-20" value="Frame" style="whiteSpace=wrap;html=1;align=center;fillColor=#f5f5f5;strokeColor=#666666;fontColor=#333333;" parent="1" vertex="1"><mxGeometry x="80" y="440" width="60" height="40" as="geometry"/></mxCell><mxCell id="431Cj-UP-DE57Rfkr5Me-21" value="Diagnostic Message" style="whiteSpace=wrap;html=1;align=center;fillColor=#dae8fc;strokeColor=#6c8ebf;" parent="1" vertex="1"><mxGeometry x="720" y="40" width="310" height="40" as="geometry"/></mxCell><mxCell id="431Cj-UP-DE57Rfkr5Me-22" value="UDS Packet" style="whiteSpace=wrap;html=1;align=center;fillColor=#ffe6cc;strokeColor=#d79b00;" parent="1" vertex="1"><mxGeometry x="1120" y="280" width="60" height="40" as="geometry"/></mxCell><mxCell id="431Cj-UP-DE57Rfkr5Me-23" value="Diagnostic Message" style="whiteSpace=wrap;html=1;align=center;fillColor=#ffe6cc;strokeColor=#d79b00;" parent="1" vertex="1"><mxGeometry x="1120" y="120" width="60" height="40" as="geometry"/></mxCell><mxCell id="431Cj-UP-DE57Rfkr5Me-25" value="Frame" style="whiteSpace=wrap;html=1;align=center;fillColor=#dae8fc;strokeColor=#6c8ebf;" parent="1" vertex="1"><mxGeometry x="160" y="360" width="60" height="40" as="geometry"/></mxCell><mxCell id="431Cj-UP-DE57Rfkr5Me-26" value="Frame" style="whiteSpace=wrap;html=1;align=center;fillColor=#dae8fc;strokeColor=#6c8ebf;" parent="1" vertex="1"><mxGeometry x="970" y="360" width="60" height="40" as="geometry"/></mxCell><mxCell id="431Cj-UP-DE57Rfkr5Me-27" value="Frame" style="whiteSpace=wrap;html=1;align=center;fillColor=#e1d5e7;strokeColor=#9673a6;" parent="1" vertex="1"><mxGeometry x="790" y="440" width="60" height="40" as="geometry"/></mxCell><mxCell id="431Cj-UP-DE57Rfkr5Me-28" value="Frame" style="whiteSpace=wrap;html=1;align=center;fillColor=#ffe6cc;strokeColor=#d79b00;" parent="1" vertex="1"><mxGeometry x="460" y="440" width="60" height="40" as="geometry"/></mxCell><mxCell id="431Cj-UP-DE57Rfkr5Me-29" value="Frame" style="whiteSpace=wrap;html=1;align=center;fillColor=#dae8fc;strokeColor=#6c8ebf;" parent="1" vertex="1"><mxGeometry x="720" y="360" width="60" height="40" as="geometry"/></mxCell><mxCell id="431Cj-UP-DE57Rfkr5Me-30" value="Frame" style="whiteSpace=wrap;html=1;align=center;fillColor=#dae8fc;strokeColor=#6c8ebf;" parent="1" vertex="1"><mxGeometry x="890" y="360" width="60" height="40" as="geometry"/></mxCell><mxCell id="431Cj-UP-DE57Rfkr5Me-32" value="Frame" style="whiteSpace=wrap;html=1;align=center;fillColor=#ffe6cc;strokeColor=#d79b00;" parent="1" vertex="1"><mxGeometry x="1120" y="440" width="60" height="40" as="geometry"/></mxCell><mxCell id="431Cj-UP-DE57Rfkr5Me-35" value="Frame" style="whiteSpace=wrap;html=1;align=center;fillColor=#f5f5f5;strokeColor=#666666;fontColor=#333333;" parent="1" vertex="1"><mxGeometry x="1030" y="440" width="60" height="40" as="geometry"/></mxCell><mxCell id="431Cj-UP-DE57Rfkr5Me-36" value="TX:" style="text;html=1;strokeColor=none;fillColor=none;align=center;verticalAlign=middle;whiteSpace=wrap;rounded=0;fontSize=22;" parent="1" vertex="1"><mxGeometry x="10" y="40" width="40" height="40" as="geometry"/></mxCell><mxCell id="431Cj-UP-DE57Rfkr5Me-37" value="RX:" style="text;html=1;strokeColor=none;fillColor=none;align=center;verticalAlign=middle;whiteSpace=wrap;rounded=0;fontSize=22;" parent="1" vertex="1"><mxGeometry x="10" y="120" width="40" height="40" as="geometry"/></mxCell><mxCell id="431Cj-UP-DE57Rfkr5Me-38" value="TX:" style="text;html=1;strokeColor=none;fillColor=none;align=center;verticalAlign=middle;whiteSpace=wrap;rounded=0;fontSize=22;" parent="1" vertex="1"><mxGeometry x="10" y="200" width="40" height="40" as="geometry"/></mxCell><mxCell id="431Cj-UP-DE57Rfkr5Me-39" value="RX:" style="text;html=1;strokeColor=none;fillColor=none;align=center;verticalAlign=middle;whiteSpace=wrap;rounded=0;fontSize=22;" parent="1" vertex="1"><mxGeometry x="10" y="280" width="40" height="40" as="geometry"/></mxCell><mxCell id="431Cj-UP-DE57Rfkr5Me-40" value="TX:" style="text;html=1;strokeColor=none;fillColor=none;align=center;verticalAlign=middle;whiteSpace=wrap;rounded=0;fontSize=22;" parent="1" vertex="1"><mxGeometry x="10" y="360" width="40" height="40" as="geometry"/></mxCell><mxCell id="431Cj-UP-DE57Rfkr5Me-41" value="RX:" style="text;html=1;strokeColor=none;fillColor=none;align=center;verticalAlign=middle;whiteSpace=wrap;rounded=0;fontSize=22;" parent="1" vertex="1"><mxGeometry x="10" y="440" width="40" height="40" as="geometry"/></mxCell><mxCell id="431Cj-UP-DE57Rfkr5Me-43" value="" style="endArrow=none;dashed=1;html=1;dashPattern=1 3;strokeWidth=2;" parent="1" edge="1"><mxGeometry width="50" height="50" relative="1" as="geometry"><mxPoint x="60" y="490" as="sourcePoint"/><mxPoint x="60" y="10" as="targetPoint"/></mxGeometry></mxCell><mxCell id="431Cj-UP-DE57Rfkr5Me-44" value="UDS Packet" style="whiteSpace=wrap;html=1;align=center;fillColor=#e1d5e7;strokeColor=#9673a6;" parent="1" vertex="1"><mxGeometry x="320" y="200" width="60" height="40" as="geometry"/></mxCell><mxCell id="431Cj-UP-DE57Rfkr5Me-45" value="Frame" style="whiteSpace=wrap;html=1;align=center;fillColor=#e1d5e7;strokeColor=#9673a6;" parent="1" vertex="1"><mxGeometry x="320" y="360" width="60" height="40" as="geometry"/></mxCell><mxCell id="431Cj-UP-DE57Rfkr5Me-46" value="Frame" style="whiteSpace=wrap;html=1;align=center;fillColor=#ffe6cc;strokeColor=#d79b00;" parent="1" vertex="1"><mxGeometry x="240" y="440" width="60" height="40" as="geometry"/></mxCell><mxCell id="431Cj-UP-DE57Rfkr5Me-47" value="Frame" style="whiteSpace=wrap;html=1;align=center;fillColor=#f5f5f5;strokeColor=#666666;fontColor=#333333;" parent="1" vertex="1"><mxGeometry x="380" y="440" width="60" height="40" as="geometry"/></mxCell><mxCell id="431Cj-UP-DE57Rfkr5Me-48" value="Layer 2 - Data&lt;br&gt;Layer 1 - Physical" style="text;html=1;strokeColor=none;fillColor=none;align=center;verticalAlign=middle;whiteSpace=wrap;rounded=0;fontSize=16;" parent="1" vertex="1"><mxGeometry x="1220" y="360" width="170" height="110" as="geometry"/></mxCell><mxCell id="431Cj-UP-DE57Rfkr5Me-49" value="Layer 4 - Transport&lt;br&gt;Layer 3 - Network" style="text;html=1;strokeColor=none;fillColor=none;align=center;verticalAlign=middle;whiteSpace=wrap;rounded=0;fontSize=16;" parent="1" vertex="1"><mxGeometry x="1220" y="200" width="170" height="110" as="geometry"/></mxCell><mxCell id="431Cj-UP-DE57Rfkr5Me-50" value="UDS Packet" style="whiteSpace=wrap;html=1;align=center;fillColor=#ffe6cc;strokeColor=#d79b00;" parent="1" vertex="1"><mxGeometry x="460" y="280" width="60" height="40" as="geometry"/></mxCell><mxCell id="431Cj-UP-DE57Rfkr5Me-51" value="Frame" style="whiteSpace=wrap;html=1;align=center;fillColor=#f5f5f5;strokeColor=#666666;fontColor=#333333;" parent="1" vertex="1"><mxGeometry x="580" y="360" width="60" height="40" as="geometry"/></mxCell><mxCell id="431Cj-UP-DE57Rfkr5Me-52" value="Frame" style="whiteSpace=wrap;html=1;align=center;fillColor=#f5f5f5;strokeColor=#666666;fontColor=#333333;" parent="1" vertex="1"><mxGeometry x="650" y="440" width="60" height="40" as="geometry"/></mxCell><mxCell id="431Cj-UP-DE57Rfkr5Me-53" value="Explanation:" style="rounded=0;whiteSpace=wrap;html=1;fontSize=22;fillColor=none;align=left;verticalAlign=top;" parent="1" vertex="1"><mxGeometry x="20" y="500" width="1190" height="90" as="geometry"/></mxCell><mxCell id="431Cj-UP-DE57Rfkr5Me-54" value="UDS PDU that was transmitted" style="whiteSpace=wrap;html=1;align=center;fillColor=#dae8fc;strokeColor=#6c8ebf;" parent="1" vertex="1"><mxGeometry x="40" y="540" width="200" height="40" as="geometry"/></mxCell><mxCell id="431Cj-UP-DE57Rfkr5Me-55" value="" style="endArrow=none;html=1;fontSize=22;fillColor=#dae8fc;strokeColor=#6c8ebf;entryX=0;entryY=1;entryDx=0;entryDy=0;dashed=1;dashPattern=1 2;" parent="1" target="431Cj-UP-DE57Rfkr5Me-21" edge="1"><mxGeometry width="50" height="50" relative="1" as="geometry"><mxPoint x="720" y="360" as="sourcePoint"/><mxPoint x="760" y="-130" as="targetPoint"/></mxGeometry></mxCell><mxCell id="431Cj-UP-DE57Rfkr5Me-56" value="" style="endArrow=none;html=1;fontSize=22;fillColor=#dae8fc;strokeColor=#6c8ebf;entryX=1;entryY=1;entryDx=0;entryDy=0;exitX=1;exitY=0;exitDx=0;exitDy=0;dashed=1;dashPattern=1 2;" parent="1" source="431Cj-UP-DE57Rfkr5Me-26" target="431Cj-UP-DE57Rfkr5Me-21" edge="1"><mxGeometry width="50" height="50" relative="1" as="geometry"><mxPoint x="730" y="420" as="sourcePoint"/><mxPoint x="730" y="90" as="targetPoint"/></mxGeometry></mxCell><mxCell id="431Cj-UP-DE57Rfkr5Me-57" value="" style="endArrow=none;html=1;fontSize=22;fillColor=#dae8fc;strokeColor=#6c8ebf;entryX=1;entryY=1;entryDx=0;entryDy=0;exitX=1;exitY=0;exitDx=0;exitDy=0;dashed=1;dashPattern=1 2;" parent="1" source="431Cj-UP-DE57Rfkr5Me-25" target="431Cj-UP-DE57Rfkr5Me-10" edge="1"><mxGeometry width="50" height="50" relative="1" as="geometry"><mxPoint x="250" y="330" as="sourcePoint"/><mxPoint x="250" y="50" as="targetPoint"/></mxGeometry></mxCell><mxCell id="431Cj-UP-DE57Rfkr5Me-58" value="" style="endArrow=none;html=1;fontSize=22;fillColor=#dae8fc;strokeColor=#6c8ebf;entryX=0;entryY=1;entryDx=0;entryDy=0;exitX=0;exitY=0;exitDx=0;exitDy=0;dashed=1;dashPattern=1 2;" parent="1" source="431Cj-UP-DE57Rfkr5Me-25" target="431Cj-UP-DE57Rfkr5Me-10" edge="1"><mxGeometry width="50" height="50" relative="1" as="geometry"><mxPoint x="230" y="370" as="sourcePoint"/><mxPoint x="230" y="90" as="targetPoint"/></mxGeometry></mxCell><mxCell id="431Cj-UP-DE57Rfkr5Me-59" value="" style="endArrow=none;html=1;fontSize=22;fillColor=#ffe6cc;strokeColor=#d79b00;entryX=0;entryY=1;entryDx=0;entryDy=0;exitX=0;exitY=0;exitDx=0;exitDy=0;dashed=1;dashPattern=1 2;" parent="1" source="431Cj-UP-DE57Rfkr5Me-46" target="431Cj-UP-DE57Rfkr5Me-11" edge="1"><mxGeometry width="50" height="50" relative="1" as="geometry"><mxPoint x="230" y="370" as="sourcePoint"/><mxPoint x="230" y="90" as="targetPoint"/></mxGeometry></mxCell><mxCell id="431Cj-UP-DE57Rfkr5Me-60" value="" style="endArrow=none;html=1;fontSize=22;fillColor=#ffe6cc;strokeColor=#d79b00;entryX=1;entryY=1;entryDx=0;entryDy=0;exitX=1;exitY=0;exitDx=0;exitDy=0;dashed=1;dashPattern=1 2;" parent="1" source="431Cj-UP-DE57Rfkr5Me-28" target="431Cj-UP-DE57Rfkr5Me-11" edge="1"><mxGeometry width="50" height="50" relative="1" as="geometry"><mxPoint x="250" y="370" as="sourcePoint"/><mxPoint x="250.00000000000023" y="170" as="targetPoint"/></mxGeometry></mxCell><mxCell id="431Cj-UP-DE57Rfkr5Me-61" value="" style="endArrow=none;html=1;fontSize=22;fillColor=#ffe6cc;strokeColor=#d79b00;entryX=1;entryY=1;entryDx=0;entryDy=0;exitX=1;exitY=0;exitDx=0;exitDy=0;dashed=1;dashPattern=1 2;" parent="1" source="431Cj-UP-DE57Rfkr5Me-32" target="431Cj-UP-DE57Rfkr5Me-23" edge="1"><mxGeometry width="50" height="50" relative="1" as="geometry"><mxPoint x="530" y="450" as="sourcePoint"/><mxPoint x="530" y="170" as="targetPoint"/></mxGeometry></mxCell><mxCell id="431Cj-UP-DE57Rfkr5Me-62" value="" style="endArrow=none;html=1;fontSize=22;fillColor=#ffe6cc;strokeColor=#d79b00;entryX=0;entryY=1;entryDx=0;entryDy=0;exitX=0;exitY=0;exitDx=0;exitDy=0;dashed=1;dashPattern=1 2;" parent="1" source="431Cj-UP-DE57Rfkr5Me-32" target="431Cj-UP-DE57Rfkr5Me-23" edge="1"><mxGeometry width="50" height="50" relative="1" as="geometry"><mxPoint x="530" y="450" as="sourcePoint"/><mxPoint x="530" y="170" as="targetPoint"/></mxGeometry></mxCell><mxCell id="431Cj-UP-DE57Rfkr5Me-63" value="UDS PDU that was received" style="whiteSpace=wrap;html=1;align=center;fillColor=#ffe6cc;strokeColor=#d79b00;" parent="1" vertex="1"><mxGeometry x="280" y="540" width="200" height="40" as="geometry"/></mxCell><mxCell id="431Cj-UP-DE57Rfkr5Me-64" value="UDS PDU that was used to control the flow of other PDUs" style="whiteSpace=wrap;html=1;align=center;fillColor=#e1d5e7;strokeColor=#9673a6;" parent="1" vertex="1"><mxGeometry x="520" y="540" width="200" height="40" as="geometry"/></mxCell><mxCell id="431Cj-UP-DE57Rfkr5Me-65" value="Frame that is irrelevant for UDS communication" style="whiteSpace=wrap;html=1;align=center;fillColor=#f5f5f5;strokeColor=#666666;fontColor=#333333;" parent="1" vertex="1"><mxGeometry x="760" y="540" width="200" height="40" as="geometry"/></mxCell><mxCell id="431Cj-UP-DE57Rfkr5Me-67" value="" style="endArrow=none;html=1;fontSize=22;fillColor=#e1d5e7;strokeColor=#9673a6;entryX=1;entryY=1;entryDx=0;entryDy=0;exitX=1;exitY=0;exitDx=0;exitDy=0;dashed=1;dashPattern=1 2;" parent="1" source="431Cj-UP-DE57Rfkr5Me-45" target="431Cj-UP-DE57Rfkr5Me-44" edge="1"><mxGeometry width="50" height="50" relative="1" as="geometry"><mxPoint x="250" y="450" as="sourcePoint"/><mxPoint x="250.00000000000023" y="170" as="targetPoint"/></mxGeometry></mxCell><mxCell id="431Cj-UP-DE57Rfkr5Me-68" value="" style="endArrow=none;html=1;fontSize=22;fillColor=#e1d5e7;strokeColor=#9673a6;entryX=0;entryY=1;entryDx=0;entryDy=0;exitX=0;exitY=0;exitDx=0;exitDy=0;dashed=1;dashPattern=1 2;" parent="1" source="431Cj-UP-DE57Rfkr5Me-45" target="431Cj-UP-DE57Rfkr5Me-44" edge="1"><mxGeometry width="50" height="50" relative="1" as="geometry"><mxPoint x="390" y="370" as="sourcePoint"/><mxPoint x="390" y="250" as="targetPoint"/></mxGeometry></mxCell><mxCell id="431Cj-UP-DE57Rfkr5Me-69" value="" style="endArrow=none;html=1;fontSize=22;fillColor=#e1d5e7;strokeColor=#9673a6;entryX=0;entryY=1;entryDx=0;entryDy=0;exitX=0;exitY=0;exitDx=0;exitDy=0;dashed=1;dashPattern=1 2;" parent="1" source="431Cj-UP-DE57Rfkr5Me-27" target="431Cj-UP-DE57Rfkr5Me-15" edge="1"><mxGeometry width="50" height="50" relative="1" as="geometry"><mxPoint x="390" y="370" as="sourcePoint"/><mxPoint x="390" y="250" as="targetPoint"/></mxGeometry></mxCell><mxCell id="431Cj-UP-DE57Rfkr5Me-70" value="" style="endArrow=none;html=1;fontSize=22;fillColor=#e1d5e7;strokeColor=#9673a6;entryX=1;entryY=1;entryDx=0;entryDy=0;exitX=1;exitY=0;exitDx=0;exitDy=0;dashed=1;dashPattern=1 2;" parent="1" source="431Cj-UP-DE57Rfkr5Me-27" target="431Cj-UP-DE57Rfkr5Me-15" edge="1"><mxGeometry width="50" height="50" relative="1" as="geometry"><mxPoint x="400" y="380" as="sourcePoint"/><mxPoint x="400" y="260" as="targetPoint"/></mxGeometry></mxCell><mxCell id="431Cj-UP-DE57Rfkr5Me-71" value="TIME" style="endArrow=classic;html=1;fontSize=22;" parent="1" edge="1"><mxGeometry width="50" height="50" relative="1" as="geometry"><mxPoint x="80" y="20" as="sourcePoint"/><mxPoint x="1180" y="20" as="targetPoint"/></mxGeometry></mxCell></root></mxGraphModel></diagram></mxfile>